<?xml version="1.0" ?>
<svg viewBox="0 0 64 64" xmlns="http://www.w3.org/2000/svg">
  <title/>
  <g data-name="Layer 19" id="Layer_19">
    <path
        d="M39.79 33.21a2.89 2.89 0 1 1-2.89-2.89A2.89 2.89 0 0 1 39.79 33.21Zm-9.93 0A2.89 2.89 0 1 1 27 30.32 2.89 2.89 0 0 1 29.86 33.21ZM32 .1A31.9 31.9 0 1 0 46.22 60.56 31.91 31.91 0 0 0 32 .1ZM47.72 38.74s-2.09 3.87-8 4.19a.21.21 0 0 1-.2-.09l-1.33-1.71a.23.23 0 0 1 .07-.35c.88-.47 3.92-2.14 5-3.76A23.63 23.63 0 0 1 32 40.59 23.63 23.63 0 0 1 20.75 37c1.12 1.62 4.16 3.29 5 3.76a.23.23 0 0 1 .07.35l-1.33 1.71a.21.21 0 0 1-.2.09c-6-.32-8-4.19-8-4.19-.37-6.46 3-14.2 3.67-15.69a1.05 1.05 0 0 1 .36-.42 14.66 14.66 0 0 1 7.45-2.41l.06.23c-4.25 1.15-5.91 2.54-6.45 3.11a.06.06 0 0 0 .08.1C25.78 21.3 32 21.43 32 21.43s6.22-.13 10.55 2.23a.06.06 0 0 0 .08-.1c-.54-.57-2.2-2-6.45-3.11l.07-.23a14.66 14.66 0 0 1 7.44 2.41 1.05 1.05 0 0 1 .36.42C44.73 24.54 48.09 32.28 47.72 38.74Z" fill="#ffffff"/>
  </g>
</svg>